<svg width="16" height="15" viewBox="0 0 16 15" fill="none" xmlns="http://www.w3.org/2000/svg">
<g clip-path="url(#clip0_2578_7020)">
<path opacity="0.4" d="M9.33464 12.8775V10.2223C9.33464 10.1044 9.28781 9.99133 9.20446 9.90798C9.12111 9.82463 9.00806 9.77781 8.89019 9.77781H7.11241C6.99454 9.77781 6.88149 9.82463 6.79814 9.90798C6.71479 9.99133 6.66797 10.1044 6.66797 10.2223V12.8809C6.66797 12.9984 6.62145 13.1111 6.53858 13.1943C6.45571 13.2776 6.34323 13.3247 6.22575 13.3253L3.11241 13.3334C2.99454 13.3334 2.88149 13.2865 2.79814 13.2032C2.71479 13.1198 2.66797 13.0068 2.66797 12.8889V8.33503L7.78991 4.11697C7.85011 4.06845 7.9251 4.04199 8.00241 4.04199C8.07973 4.04199 8.15472 4.06845 8.21491 4.11697L13.3346 8.33336V12.8889C13.3346 13.0068 13.2878 13.1198 13.2045 13.2032C13.1211 13.2865 13.0081 13.3334 12.8902 13.3334L9.77908 13.3248C9.72048 13.3248 9.66246 13.3132 9.60835 13.2907C9.55425 13.2681 9.50513 13.2352 9.46382 13.1936C9.42252 13.152 9.38984 13.1027 9.36767 13.0485C9.34549 12.9942 9.33427 12.9361 9.33464 12.8775Z" fill="#213F7D"/>
<path d="M15.9246 7.45395L15.2162 8.31506C15.1884 8.34892 15.1542 8.37696 15.1156 8.39759C15.0769 8.41822 15.0346 8.43103 14.991 8.43528C14.9474 8.43954 14.9034 8.43516 14.8615 8.4224C14.8196 8.40963 14.7806 8.38873 14.7468 8.36089L8.21264 2.97784C8.15245 2.92932 8.07746 2.90286 8.00014 2.90286C7.92283 2.90286 7.84784 2.92932 7.78764 2.97784L1.25378 8.36089C1.18548 8.41703 1.09769 8.44374 1.0097 8.43514C0.921715 8.42655 0.840748 8.38335 0.78461 8.31506L0.076279 7.45395C0.0200145 7.3858 -0.00688127 7.29809 0.00150514 7.21011C0.00989155 7.12213 0.0528736 7.04108 0.121001 6.98478L7.15153 1.19423C7.3902 0.997833 7.68967 0.890453 7.99875 0.890453C8.30783 0.890453 8.60731 0.997833 8.84597 1.19423L11.3324 3.23895V1.22201C11.3324 1.1336 11.3675 1.04882 11.43 0.986303C11.4925 0.923791 11.5773 0.888672 11.6657 0.888672H13.2212C13.3096 0.888672 13.3944 0.923791 13.4569 0.986303C13.5194 1.04882 13.5546 1.1336 13.5546 1.22201V5.06951L15.8768 6.98367C15.9109 7.01134 15.9392 7.04548 15.9601 7.08413C15.981 7.12278 15.994 7.16517 15.9984 7.20888C16.0029 7.25258 15.9986 7.29673 15.986 7.33879C15.9733 7.38085 15.9524 7.41998 15.9246 7.45395V7.45395Z" fill="#213F7D"/>
</g>
<defs>
<clipPath id="clip0_2578_7020">
<rect width="16" height="14.2222" fill="white"/>
</clipPath>
</defs>
</svg>
